<svg width="19" height="19" viewBox="0 0 19 19" fill="none" xmlns="http://www.w3.org/2000/svg">
<path fill-rule="evenodd" clip-rule="evenodd" d="M18.5003 9.25005C18.5002 12.9941 16.2433 16.3688 12.7831 17.7988C9.32295 19.2287 5.34202 18.4318 2.69891 15.7801C0.0558088 13.1284 -0.72816 9.1449 0.713022 5.68939C2.1542 2.23388 5.53628 -0.0120937 9.28027 4.89922e-05C14.3866 0.00556044 18.5248 4.1437 18.5303 9.25005H18.5003ZM13.2803 6.25005L10.2803 9.25005L13.2803 12.25L12.2803 13.25L9.28027 10.25L6.28027 13.25L5.28027 12.25L8.28027 9.25005L5.28027 6.25005L6.28027 5.25005L9.28027 8.25005L12.2803 5.25005L13.2803 6.25005ZM12.2091 2.08716C15.1088 3.28493 17.0002 6.11274 17.0003 9.25005H17.0303C17.0248 13.528 13.5582 16.9945 9.28027 17C6.14298 17.0122 3.30786 15.1317 2.09885 12.2367C0.889836 9.3417 1.54547 6.00338 3.75957 3.78067C5.97368 1.55796 9.30943 0.889384 12.2091 2.08716Z" fill="#484861"/>
</svg>
