<svg width="21" height="20" viewBox="0 0 21 20" fill="none" xmlns="http://www.w3.org/2000/svg">
<path fill-rule="evenodd" clip-rule="evenodd" d="M19.3233 9.74353C19.3233 14.7212 15.1662 18.7564 10.0381 18.7564C4.91004 18.7564 0.75293 14.7212 0.75293 9.74353C0.75293 4.76589 4.91004 0.730713 10.0381 0.730713C15.1639 0.736083 19.3177 4.76812 19.3233 9.74353ZM8.98833 5.8461C8.98833 5.5863 9.09522 5.33725 9.28525 5.1543H9.3254C9.71317 4.79549 10.3229 4.79549 10.7107 5.1543C10.9007 5.33725 11.0076 5.5863 11.0076 5.8461C11.0076 6.1059 10.9007 6.35494 10.7107 6.53789C10.5222 6.72235 10.2656 6.82611 9.99795 6.82611C9.7303 6.82611 9.47373 6.72235 9.28525 6.53789C9.09522 6.35494 8.98833 6.1059 8.98833 5.8461ZM9.28525 8.76918V14.6153H10.791V8.76918H9.28525ZM10.0381 2.19225C14.3346 2.19225 17.8176 5.57308 17.8176 9.74353C17.812 13.9118 14.3323 17.2894 10.0381 17.2948C5.74162 17.2948 2.25863 13.914 2.25863 9.74353C2.25863 5.57308 5.74162 2.19225 10.0381 2.19225Z" fill="#235AE4"/>
</svg>
